<svg xmlns="http://www.w3.org/2000/svg" viewBox="0 0 512 512">
  <rect width="512" height="512" rx="112" fill="#020204"/>
  <rect x="36" y="36" width="440" height="440" rx="92" fill="none" stroke="#00f0ff" stroke-width="14"/>
  <path d="M138 330V180h64c49 0 87 22 87 75s-38 75-87 75h-64Zm64-40c27 0 45-11 45-35s-18-35-45-35h-22v70h22Z" fill="#00f0ff"/>
  <path d="M306 180h69c53 0 86 24 86 72 0 51-33 78-86 78h-25v52h-44V180Zm67 110c28 0 44-12 44-38 0-23-16-32-44-32h-23v70h23Z" fill="#ff007f"/>
</svg>
